<svg
   inkscape:export-ydpi="96"
   inkscape:export-xdpi="96"
   inkscape:export-filename="blender_icons.png"
   style="display:inline;enable-background:new"
   inkscape:output_extension="org.inkscape.output.svg.inkscape"
   sodipodi:docname="blender_icons.svg"
   version="1.0"
   inkscape:version="1.2 (dc2aeda, 2022-05-15)"
   sodipodi:version="0.32"
   id="svg2"
   height="14.000015"
   width="14"
   xmlns:inkscape="http://www.inkscape.org/namespaces/inkscape"
   xmlns:sodipodi="http://sodipodi.sourceforge.net/DTD/sodipodi-0.dtd"
   xmlns="http://www.w3.org/2000/svg"
   xmlns:svg="http://www.w3.org/2000/svg"
   xmlns:rdf="http://www.w3.org/1999/02/22-rdf-syntax-ns#"
   xmlns:cc="http://creativecommons.org/ns#"
   xmlns:dc="http://purl.org/dc/elements/1.1/">
  <metadata
     id="metadata34337">
    <rdf:RDF>
      <cc:Work
         rdf:about="">
        <dc:format>image/svg+xml</dc:format>
        <dc:type
           rdf:resource="http://purl.org/dc/dcmitype/StillImage" />
        <dc:title />
      </cc:Work>
    </rdf:RDF>
  </metadata>
  <sodipodi:namedview
     inkscape:pagecheckerboard="true"
     inkscape:document-rotation="0"
     pagecolor="#808080"
     bordercolor="#666666"
     borderopacity="1"
     objecttolerance="10"
     gridtolerance="10"
     guidetolerance="10"
     inkscape:pageopacity="0"
     inkscape:pageshadow="2"
     inkscape:window-width="1728"
     inkscape:window-height="1051"
     id="namedview34335"
     showgrid="false"
     inkscape:zoom="1.7115805"
     inkscape:cx="217.6351"
     inkscape:cy="369.54148"
     inkscape:window-x="767"
     inkscape:window-y="92"
     inkscape:window-maximized="0"
     inkscape:current-layer="layer4"
     inkscape:showpageshadow="2"
     inkscape:deskcolor="#808080" />
  <defs
     id="defs4" />
  <g
     inkscape:groupmode="layer"
     id="layer8"
     inkscape:label="icons"
     style="display:inline"
     transform="translate(-6,-200)">
    <g
       id="g158056"
       style="display:inline;enable-background:new"
       inkscape:label="J-1">
      <path
         style="color:#000000;font-style:normal;font-variant:normal;font-weight:normal;font-stretch:normal;font-size:medium;line-height:normal;font-family:sans-serif;font-variant-ligatures:normal;font-variant-position:normal;font-variant-caps:normal;font-variant-numeric:normal;font-variant-alternates:normal;font-feature-settings:normal;text-indent:0;text-align:start;text-decoration:none;text-decoration-line:none;text-decoration-style:solid;text-decoration-color:#000000;letter-spacing:normal;word-spacing:normal;text-transform:none;writing-mode:lr-tb;direction:ltr;text-orientation:mixed;dominant-baseline:auto;baseline-shift:baseline;text-anchor:start;white-space:normal;shape-padding:0;clip-rule:nonzero;display:inline;overflow:visible;visibility:visible;opacity:1;isolation:auto;mix-blend-mode:normal;color-interpolation:sRGB;color-interpolation-filters:linearRGB;solid-color:#000000;solid-opacity:1;vector-effect:none;fill:#ffffff;fill-opacity:1;fill-rule:nonzero;stroke:none;stroke-width:1;stroke-linecap:round;stroke-linejoin:round;stroke-miterlimit:4;stroke-dasharray:none;stroke-dashoffset:0;stroke-opacity:1;color-rendering:auto;image-rendering:auto;shape-rendering:auto;text-rendering:auto;enable-background:new"
         d="m 12.75,200 a 0.50004997,0.50004997 0 0 0 -0.472656,0.33398 L 10.644531,205 H 6.5 A 0.50004997,0.50004997 0 0 0 6,205.5 v 0.75 a 0.50004997,0.50004997 0 0 0 0.2304688,0.41992 l 3.1660156,2.03711 -1.3671875,3.87695 A 0.50004997,0.50004997 0 0 0 8,212.75 v 0.75 a 0.50004997,0.50004997 0 0 0 0.5,0.5 h 0.75 a 0.50004997,0.50004997 0 0 0 0.3261719,-0.12109 L 12.935547,211 h 0.128906 l 3.359375,2.87891 A 0.50004997,0.50004997 0 0 0 16.753906,214 L 17.5,213.99414 a 0.50004997,0.50004997 0 0 0 0.496094,-0.49609 L 18,212.75195 a 0.50004997,0.50004997 0 0 0 -0.0293,-0.16797 l -1.367187,-3.87695 3.166015,-2.03711 A 0.50004997,0.50004997 0 0 0 20,206.25 V 205.5 A 0.50004997,0.50004997 0 0 0 19.5,205 h -4.144531 l -1.632813,-4.66602 A 0.50004997,0.50004997 0 0 0 13.25,200 h -0.251953 z m 0.25,1.30078 1.527344,4.36524 A 0.50004997,0.50004997 0 0 0 15,206 h 3.962891 l -3.232422,2.08008 a 0.50004997,0.50004997 0 0 0 -0.201172,0.58594 L 17,212.83398 l -0.002,0.16407 h -0.06445 l -3.357422,-2.87696 A 0.50004997,0.50004997 0 0 0 13.25,210 h -0.5 a 0.50004997,0.50004997 0 0 0 -0.326172,0.12109 L 9.0644531,213 H 9 v -0.16406 l 1.470703,-4.16992 a 0.50004997,0.50004997 0 0 0 -0.201172,-0.58594 L 7.0371094,206 H 11 a 0.50004997,0.50004997 0 0 0 0.472656,-0.33398 z"
         id="path14401"
         inkscape:connector-curvature="0" />
    </g>
  </g>
</svg>
