<?xml version="1.0" encoding="UTF-8" standalone="no"?>
<svg
   inkscape:export-ydpi="96"
   inkscape:export-xdpi="96"
   inkscape:export-filename="..\32\blender_icon_hide_off.png"
   style="display:inline;enable-background:new"
   inkscape:output_extension="org.inkscape.output.svg.inkscape"
   sodipodi:docname="blender_icon_hide_off.svg"
   version="1.0"
   inkscape:version="1.3.2 (091e20e, 2023-11-25, custom)"
   sodipodi:version="0.32"
   id="svg2"
   height="32"
   width="32"
   xmlns:inkscape="http://www.inkscape.org/namespaces/inkscape"
   xmlns:sodipodi="http://sodipodi.sourceforge.net/DTD/sodipodi-0.dtd"
   xmlns="http://www.w3.org/2000/svg"
   xmlns:svg="http://www.w3.org/2000/svg"
   xmlns:rdf="http://www.w3.org/1999/02/22-rdf-syntax-ns#"
   xmlns:cc="http://creativecommons.org/ns#"
   xmlns:dc="http://purl.org/dc/elements/1.1/">
  <metadata
     id="metadata34337">
    <rdf:RDF>
      <cc:Work
         rdf:about="">
        <dc:format>image/svg+xml</dc:format>
        <dc:type
           rdf:resource="http://purl.org/dc/dcmitype/StillImage" />
      </cc:Work>
    </rdf:RDF>
  </metadata>
  <sodipodi:namedview
     inkscape:pagecheckerboard="true"
     inkscape:document-rotation="0"
     pagecolor="#808080"
     bordercolor="#666666"
     borderopacity="1"
     objecttolerance="10"
     gridtolerance="10"
     guidetolerance="10"
     inkscape:pageopacity="0"
     inkscape:pageshadow="2"
     inkscape:window-width="1424"
     inkscape:window-height="856"
     id="namedview34335"
     showgrid="false"
     inkscape:zoom="9.6821614"
     inkscape:cx="8.0560524"
     inkscape:cy="25.200985"
     inkscape:window-x="0"
     inkscape:window-y="0"
     inkscape:window-maximized="0"
     inkscape:current-layer="layer8"
     inkscape:showpageshadow="2"
     inkscape:deskcolor="#808080" />
  <defs
     id="defs4" />
  <g
     inkscape:groupmode="layer"
     id="layer8"
     inkscape:label="icons"
     style="display:inline"
     transform="translate(-426.004,-433)">
    <g
       id="g76952"
       style="display:inline;enable-background:new"
       inkscape:label="U-21"
       transform="matrix(2.4632437,0,0,2.4632437,-623.34765,-628.67152)">
      <path
         inkscape:connector-curvature="0"
         style="color:#000000;font-style:normal;font-variant:normal;font-weight:normal;font-stretch:normal;font-size:medium;line-height:normal;font-family:sans-serif;font-variant-ligatures:normal;font-variant-position:normal;font-variant-caps:normal;font-variant-numeric:normal;font-variant-alternates:normal;font-feature-settings:normal;text-indent:0;text-align:start;text-decoration:none;text-decoration-line:none;text-decoration-style:solid;text-decoration-color:#000000;letter-spacing:normal;word-spacing:normal;text-transform:none;writing-mode:lr-tb;direction:ltr;text-orientation:mixed;dominant-baseline:auto;baseline-shift:baseline;text-anchor:start;white-space:normal;shape-padding:0;clip-rule:nonzero;display:inline;overflow:visible;visibility:visible;opacity:1;isolation:auto;mix-blend-mode:normal;color-interpolation:sRGB;color-interpolation-filters:linearRGB;solid-color:#000000;solid-opacity:1;vector-effect:none;fill:#ffffff;fill-opacity:1;fill-rule:nonzero;stroke:none;stroke-width:1;stroke-linecap:round;stroke-linejoin:round;stroke-miterlimit:4;stroke-dasharray:none;stroke-dashoffset:0;stroke-opacity:1;color-rendering:auto;image-rendering:auto;shape-rendering:auto;text-rendering:auto;enable-background:new"
         d="m 432.49961,433 c -3.27784,-9.4e-4 -5.036,2.7211 -6.36328,4.16211 -0.17644,0.19146 -0.17644,0.48627 0,0.67773 1.3275,1.44124 3.08593,4.15993 6.36328,4.16211 3.27801,0.002 5.03608,-2.72118 6.36328,-4.16211 0.17644,-0.19146 0.17644,-0.48627 0,-0.67773 -1.32741,-1.44115 -3.08573,-4.16117 -6.36328,-4.16211 z m 0,1 a 3.4999952,3.4999933 0 0 1 3.5,3.5 3.4999952,3.4999933 0 0 1 -3.5,3.5 3.4999952,3.4999933 0 0 1 -3.5,-3.5 3.4999952,3.4999933 0 0 1 3.5,-3.5 z m 0,2 a 1.4999952,1.4999944 0 0 0 -1.5,1.5 1.4999952,1.4999944 0 0 0 1.5,1.5 1.4999952,1.4999944 0 0 0 1.5,-1.5 1.4999952,1.4999944 0 0 0 -1.5,-1.5 z"
         id="path19347-7" />
    </g>
  </g>
</svg>
